<svg width="42" height="45" viewBox="0 0 42 45" fill="none" xmlns="http://www.w3.org/2000/svg">
<path d="M35.4316 6.44141C33.5625 4.55347 31.3393 3.05276 28.8894 2.02521C26.4395 0.99765 23.811 0.463426 21.1543 0.453125H21C15.6128 0.453125 10.4462 2.59319 6.63689 6.40252C2.82756 10.2119 0.6875 15.3784 0.6875 20.7656V31.7031C0.6875 32.9463 1.18136 34.1386 2.06044 35.0177C2.93951 35.8968 4.1318 36.3906 5.375 36.3906H8.5C9.7432 36.3906 10.9355 35.8968 11.8146 35.0177C12.6936 34.1386 13.1875 32.9463 13.1875 31.7031V23.8906C13.1875 22.6474 12.6936 21.4551 11.8146 20.5761C10.9355 19.697 9.7432 19.2031 8.5 19.2031H3.88281C4.18415 15.9452 5.40788 12.8406 7.4106 10.2533C9.41331 7.66603 12.112 5.70319 15.1904 4.59485C18.2688 3.48652 21.5994 3.27862 24.7917 3.99552C27.9841 4.71242 30.9059 6.32442 33.2148 8.64258C36.0369 11.4791 37.7727 15.2169 38.1191 19.2031H33.5C32.2568 19.2031 31.0645 19.697 30.1854 20.5761C29.3064 21.4551 28.8125 22.6474 28.8125 23.8906V31.7031C28.8125 32.9463 29.3064 34.1386 30.1854 35.0177C31.0645 35.8968 32.2568 36.3906 33.5 36.3906H38.1875C38.1875 37.6338 37.6936 38.8261 36.8146 39.7052C35.9355 40.5843 34.7432 41.0781 33.5 41.0781H22.5625C22.1481 41.0781 21.7507 41.2427 21.4576 41.5358C21.1646 41.8288 21 42.2262 21 42.6406C21 43.055 21.1646 43.4525 21.4576 43.7455C21.7507 44.0385 22.1481 44.2031 22.5625 44.2031H33.5C35.572 44.2031 37.5591 43.38 39.0243 41.9149C40.4894 40.4498 41.3125 38.4626 41.3125 36.3906V20.7656C41.3227 18.1085 40.8085 15.4756 39.7993 13.0176C38.7902 10.5595 37.3059 8.32482 35.4316 6.44141ZM8.5 22.3281C8.9144 22.3281 9.31183 22.4927 9.60485 22.7858C9.89788 23.0788 10.0625 23.4762 10.0625 23.8906V31.7031C10.0625 32.1175 9.89788 32.515 9.60485 32.808C9.31183 33.101 8.9144 33.2656 8.5 33.2656H5.375C4.9606 33.2656 4.56317 33.101 4.27015 32.808C3.97712 32.515 3.8125 32.1175 3.8125 31.7031V22.3281H8.5ZM33.5 33.2656C33.0856 33.2656 32.6882 33.101 32.3951 32.808C32.1021 32.515 31.9375 32.1175 31.9375 31.7031V23.8906C31.9375 23.4762 32.1021 23.0788 32.3951 22.7858C32.6882 22.4927 33.0856 22.3281 33.5 22.3281H38.1875V33.2656H33.5Z" fill="#D1D0CF"/>
</svg>
