<svg width="50" height="50" viewBox="0 0 50 50" fill="none" xmlns="http://www.w3.org/2000/svg">
<g clip-path="url(#clip0_1843_294)">
<path d="M15.8184 37.5H26.6777C32.3152 37.5 35.7027 34.6625 35.7027 30.0125C35.7027 26.5687 33.3246 24.025 29.7527 23.6562V23.3437C32.3527 22.9062 34.384 20.4375 34.384 17.6687C34.384 13.6062 31.3996 11.075 26.4402 11.075H15.8184V37.5ZM19.9215 22.2656V14.5562H25.484C28.5246 14.5562 30.3027 15.9843 30.3027 18.4218C30.3027 20.9281 28.4152 22.2656 24.7902 22.2656H19.9215ZM19.9215 34.0218V25.5062H25.6152C29.4777 25.5062 31.5121 26.9531 31.5121 29.7187C31.5121 32.5187 29.5527 34.0218 25.8527 34.0218H19.9215Z" fill="#D1D0CF"/>
<path d="M0 12.5C0 9.18479 1.31696 6.00537 3.66117 3.66117C6.00537 1.31696 9.18479 0 12.5 0L37.5 0C40.8152 0 43.9946 1.31696 46.3388 3.66117C48.683 6.00537 50 9.18479 50 12.5V37.5C50 40.8152 48.683 43.9946 46.3388 46.3388C43.9946 48.683 40.8152 50 37.5 50H12.5C9.18479 50 6.00537 48.683 3.66117 46.3388C1.31696 43.9946 0 40.8152 0 37.5V12.5ZM12.5 3.125C10.0136 3.125 7.62903 4.11272 5.87087 5.87087C4.11272 7.62903 3.125 10.0136 3.125 12.5V37.5C3.125 39.9864 4.11272 42.371 5.87087 44.1291C7.62903 45.8873 10.0136 46.875 12.5 46.875H37.5C39.9864 46.875 42.371 45.8873 44.1291 44.1291C45.8873 42.371 46.875 39.9864 46.875 37.5V12.5C46.875 10.0136 45.8873 7.62903 44.1291 5.87087C42.371 4.11272 39.9864 3.125 37.5 3.125H12.5Z" fill="#D1D0CF"/>
</g>
<defs>
<clipPath id="clip0_1843_294">
<rect width="50" height="50" fill="white"/>
</clipPath>
</defs>
</svg>
