<svg width="48" height="38" viewBox="0 0 48 38" fill="none" xmlns="http://www.w3.org/2000/svg">
<path d="M12.1284 12.4073L4.19484 19.0186L12.1284 25.6299C12.2906 25.7598 12.4253 25.9207 12.5246 26.1032C12.6238 26.2857 12.6857 26.4862 12.7066 26.6929C12.7274 26.8996 12.7068 27.1084 12.646 27.3071C12.5852 27.5058 12.4854 27.6903 12.3524 27.8499C12.2194 28.0095 12.0559 28.141 11.8715 28.2367C11.687 28.3324 11.4854 28.3903 11.2783 28.4071C11.0712 28.4239 10.8628 28.3992 10.6654 28.3345C10.468 28.2698 10.2854 28.1664 10.1284 28.0303L0.753438 20.2178C0.577524 20.0712 0.435996 19.8877 0.338873 19.6803C0.24175 19.4729 0.191406 19.2466 0.191406 19.0176C0.191406 18.7886 0.24175 18.5624 0.338873 18.355C0.435996 18.1476 0.577524 17.9641 0.753438 17.8174L10.1284 10.0049C10.447 9.73972 10.8579 9.61192 11.2707 9.64964C11.6835 9.68737 12.0644 9.88754 12.3296 10.2061C12.5948 10.5247 12.7226 10.9356 12.6849 11.3484C12.6472 11.7612 12.447 12.1421 12.1284 12.4073ZM46.5034 17.8174L37.1284 10.0049C36.9707 9.87361 36.7886 9.77465 36.5926 9.71369C36.3967 9.65272 36.1906 9.63096 35.9862 9.64964C35.7818 9.66832 35.5831 9.72708 35.4014 9.82256C35.2197 9.91804 35.0586 10.0484 34.9273 10.2061C34.6621 10.5247 34.5342 10.9356 34.572 11.3484C34.6097 11.7612 34.8099 12.1421 35.1284 12.4073L43.062 19.0186L35.1284 25.6299C34.9662 25.7598 34.8316 25.9207 34.7323 26.1032C34.633 26.2857 34.5712 26.4862 34.5503 26.6929C34.5295 26.8996 34.55 27.1084 34.6109 27.3071C34.6717 27.5058 34.7715 27.6903 34.9045 27.8499C35.0375 28.0095 35.201 28.141 35.3854 28.2367C35.5698 28.3324 35.7715 28.3903 35.9786 28.4071C36.1857 28.4239 36.394 28.3992 36.5915 28.3345C36.7889 28.2698 36.9715 28.1664 37.1284 28.0303L46.5034 20.2178C46.6794 20.0712 46.8209 19.8877 46.918 19.6803C47.0151 19.4729 47.0655 19.2466 47.0655 19.0176C47.0655 18.7886 47.0151 18.5624 46.918 18.355C46.8209 18.1476 46.6794 17.9641 46.5034 17.8174ZM30.4116 0.362356C30.2188 0.29233 30.014 0.26098 29.809 0.270098C29.604 0.279216 29.4028 0.328623 29.2169 0.415497C29.031 0.502371 28.864 0.625011 28.7255 0.776415C28.587 0.927819 28.4797 1.10502 28.4097 1.2979L15.9097 35.6729C15.8394 35.8659 15.8078 36.0709 15.8167 36.2761C15.8257 36.4813 15.8751 36.6827 15.962 36.8688C16.0488 37.055 16.1716 37.2221 16.3232 37.3608C16.4747 37.4994 16.6521 37.6068 16.8452 37.6768C17.0164 37.7376 17.1968 37.7687 17.3784 37.7686C17.6993 37.7686 18.0124 37.6698 18.2752 37.4857C18.538 37.3015 18.7377 37.0409 18.8472 36.7393L31.3472 2.36431C31.4172 2.17143 31.4486 1.96665 31.4394 1.76165C31.4303 1.55666 31.3809 1.35547 31.294 1.16957C31.2072 0.983668 31.0845 0.8167 30.9331 0.678198C30.7817 0.539697 30.6045 0.432373 30.4116 0.362356Z" fill="#D1D0CF"/>
</svg>
