<svg width="51" height="51" viewBox="0 0 51 51" fill="none" xmlns="http://www.w3.org/2000/svg">
<g clip-path="url(#clip0_1843_285)">
<path d="M46.4871 31.8159C46.21 31.594 45.8655 31.4732 45.5105 31.4732C45.1555 31.4732 44.8111 31.594 44.534 31.8159C44.3504 31.9644 40.0418 35.4644 40.0418 40.0679C40.0418 41.5183 40.6179 42.9093 41.6435 43.9349C42.6691 44.9605 44.0601 45.5366 45.5105 45.5366C46.9609 45.5366 48.3519 44.9605 49.3775 43.9349C50.4031 42.9093 50.9793 41.5183 50.9793 40.0679C50.9793 35.4644 46.6707 31.9644 46.4871 31.8159ZM45.5105 42.4116C44.8889 42.4116 44.2928 42.1647 43.8532 41.7252C43.4137 41.2856 43.1668 40.6895 43.1668 40.0679C43.1668 38.0796 44.534 36.2534 45.5105 35.1987C46.4871 36.2573 47.8543 38.0894 47.8543 40.0679C47.8543 40.6895 47.6073 41.2856 47.1678 41.7252C46.7283 42.1647 46.1321 42.4116 45.5105 42.4116ZM45.8347 23.2378L24.8406 2.24366C24.5476 1.95086 24.1503 1.78638 23.7361 1.78638C23.3219 1.78638 22.9246 1.95086 22.6316 2.24366L14.7 10.1851L9.89529 5.36866C9.6021 5.07573 9.20455 4.91127 8.7901 4.91145C8.37566 4.91163 7.97826 5.07645 7.68533 5.36964C7.3924 5.66283 7.22793 6.06037 7.22812 6.47482C7.2283 6.88927 7.39312 7.28667 7.6863 7.5796L12.491 12.3843L3.90896 20.9605C3.02995 21.8395 2.53613 23.0318 2.53613 24.2749C2.53613 25.5181 3.02995 26.7103 3.90896 27.5894L20.489 44.1694C21.3681 45.0485 22.5603 45.5423 23.8035 45.5423C25.0466 45.5423 26.2389 45.0485 27.1179 44.1694L45.8347 25.4526C45.9806 25.3075 46.0963 25.1349 46.1753 24.9448C46.2543 24.7548 46.295 24.551 46.295 24.3452C46.295 24.1394 46.2543 23.9356 46.1753 23.7456C46.0963 23.5556 45.9806 23.383 45.8347 23.2378ZM24.907 41.9546C24.614 42.2474 24.2167 42.4119 23.8025 42.4119C23.3883 42.4119 22.991 42.2474 22.698 41.9546L6.1238 25.3804C5.831 25.0874 5.66652 24.6901 5.66652 24.2759C5.66652 23.8617 5.831 23.4644 6.1238 23.1714L14.7 14.5933L20.3875 20.2808C19.7633 21.4366 19.576 22.7785 19.8598 24.061C20.1436 25.3436 20.8796 26.4811 21.9332 27.2657C22.9867 28.0502 24.2875 28.4293 25.5976 28.3337C26.9077 28.238 28.1396 27.674 29.0681 26.7447C29.9965 25.8154 30.5594 24.583 30.6539 23.2729C30.7484 21.9627 30.3682 20.6622 29.5827 19.6094C28.7973 18.5565 27.6591 17.8215 26.3762 17.5388C25.0934 17.2561 23.7517 17.4446 22.5965 18.0698L16.9109 12.3843L23.7469 5.55811L42.5301 24.3413L24.907 41.9546ZM25.198 20.5366C25.7403 20.5375 26.2654 20.7264 26.684 21.0711C27.1026 21.4158 27.3888 21.8949 27.4937 22.4269C27.5986 22.9589 27.5158 23.5109 27.2594 23.9886C27.003 24.4664 26.5888 24.8406 26.0875 25.0472C25.5862 25.2539 25.0287 25.2803 24.5101 25.1221C23.9914 24.9638 23.5437 24.6305 23.2432 24.1792C22.9428 23.7278 22.8081 23.1862 22.8622 22.6466C22.9162 22.1071 23.1557 21.603 23.5398 21.2202C23.9801 20.7815 24.5765 20.5356 25.198 20.5366Z" fill="#D1D0CF"/>
</g>
<defs>
<clipPath id="clip0_1843_285">
<rect width="50" height="50" fill="white" transform="translate(0.979492 0.224121)"/>
</clipPath>
</defs>
</svg>
