<svg width="43" height="43" viewBox="0 0 43 43" fill="none" xmlns="http://www.w3.org/2000/svg">
<path d="M42.8749 16.6641C42.8762 16.2535 42.7959 15.8468 42.6387 15.4676C42.4814 15.0884 42.2504 14.7442 41.9589 14.4551L28.5449 1.03908C28.2547 0.74882 27.9101 0.51857 27.5309 0.36148C27.1518 0.204389 26.7453 0.123535 26.3349 0.123535C25.9245 0.123535 25.518 0.204389 25.1388 0.36148C24.7597 0.51857 24.4151 0.74882 24.1249 1.03908L18.5722 6.59181L7.24407 10.8438C6.72924 11.0358 6.27387 11.3596 5.92355 11.783C5.57324 12.2063 5.34027 12.7142 5.24798 13.2559L0.708916 40.4922C0.671461 40.7161 0.683239 40.9455 0.74343 41.1643C0.803622 41.3832 0.910781 41.5863 1.05745 41.7596C1.20412 41.9328 1.38678 42.0721 1.59272 42.1675C1.79866 42.263 2.02293 42.3125 2.24993 42.3125C2.3363 42.3122 2.42251 42.305 2.50774 42.291L29.7421 37.752C30.2831 37.6617 30.7909 37.4306 31.2143 37.0819C31.6377 36.7333 31.9619 36.2793 32.1542 35.7656L36.4062 24.4375L41.9589 18.875C42.2505 18.5856 42.4817 18.2411 42.6389 17.8615C42.7962 17.482 42.8764 17.0749 42.8749 16.6641ZM29.2285 34.6699L6.80462 38.4063L16.0566 29.1543C17.2121 29.7788 18.5539 29.9666 19.8365 29.6832C21.1191 29.3998 22.2568 28.6643 23.0417 27.6111C23.8266 26.5578 24.2062 25.2573 24.1111 23.9472C24.016 22.6371 23.4525 21.405 22.5237 20.4762C21.5949 19.5474 20.3628 18.984 19.0527 18.8888C17.7427 18.7937 16.4421 19.1733 15.3889 19.9582C14.3356 20.7431 13.6001 21.8809 13.3167 23.1635C13.0334 24.4461 13.2211 25.7878 13.8456 26.9434L4.59368 36.1992L8.33001 13.7695L19.0468 9.75197L33.246 23.9531L29.2285 34.6699ZM16.3124 24.3438C16.3124 23.8802 16.4499 23.4271 16.7074 23.0416C16.965 22.6562 17.331 22.3558 17.7593 22.1784C18.1875 22.001 18.6588 21.9546 19.1134 22.0451C19.5681 22.1355 19.9857 22.3587 20.3135 22.6865C20.6412 23.0143 20.8645 23.4319 20.9549 23.8865C21.0453 24.3412 20.9989 24.8124 20.8215 25.2407C20.6441 25.6689 20.3437 26.035 19.9583 26.2925C19.5729 26.5501 19.1197 26.6875 18.6562 26.6875C18.0346 26.6875 17.4384 26.4406 16.9989 26.001C16.5594 25.5615 16.3124 24.9654 16.3124 24.3438ZM35.0624 21.3516L21.6464 7.93752L26.3339 3.25002L39.7499 16.6641L35.0624 21.3516Z" fill="#D1D0CF"/>
</svg>
