<svg width="42" height="41" viewBox="0 0 42 41" fill="none" xmlns="http://www.w3.org/2000/svg">
<path d="M20.8887 0.181152C16.8712 0.181152 12.944 1.37246 9.60366 3.60443C6.26329 5.83639 3.65978 9.00877 2.12238 12.7204C0.584973 16.432 0.182718 20.5162 0.96648 24.4564C1.75024 28.3967 3.68482 32.016 6.52557 34.8568C9.36633 37.6975 12.9857 39.6321 16.9259 40.4159C20.8661 41.1996 24.9503 40.7974 28.6619 39.26C32.3736 37.7225 35.5459 35.119 37.7779 31.7787C40.0099 28.4383 41.2012 24.5111 41.2012 20.4937C41.1955 15.1082 39.0536 9.94493 35.2455 6.13683C31.4374 2.32873 26.2741 0.186839 20.8887 0.181152ZM15.7383 28.3062H26.0391C24.9902 31.8882 23.2324 35.1167 20.8887 37.6597C18.5449 35.1167 16.7871 31.8882 15.7383 28.3062ZM15.0293 25.1812C14.5111 22.0776 14.5111 18.9097 15.0293 15.8062H26.7481C27.2663 18.9097 27.2663 22.0776 26.7481 25.1812H15.0293ZM3.70118 20.4937C3.69982 18.9086 3.91871 17.331 4.35157 15.8062H11.8633C11.3971 18.9138 11.3971 22.0735 11.8633 25.1812H4.35157C3.91871 23.6563 3.69982 22.0787 3.70118 20.4937ZM26.0391 12.6812H15.7383C16.7871 9.09912 18.5449 5.87061 20.8887 3.32764C23.2324 5.87061 24.9902 9.09912 26.0391 12.6812ZM29.9141 15.8062H37.4258C38.293 18.871 38.293 22.1163 37.4258 25.1812H29.9141C30.3802 22.0735 30.3802 18.9138 29.9141 15.8062ZM36.1953 12.6812H29.2754C28.478 9.54348 27.1389 6.56913 25.3184 3.89209C27.6442 4.51713 29.8136 5.62202 31.6868 7.1357C33.5601 8.64939 35.0959 10.5384 36.1953 12.6812ZM16.459 3.89209C14.6385 6.56913 13.2994 9.54348 12.502 12.6812H5.58204C6.68151 10.5384 8.21725 8.64939 10.0905 7.1357C11.9638 5.62202 14.1331 4.51713 16.459 3.89209ZM5.58204 28.3062H12.502C13.2994 31.4438 14.6385 34.4182 16.459 37.0952C14.1331 36.4702 11.9638 35.3653 10.0905 33.8516C8.21725 32.3379 6.68151 30.4489 5.58204 28.3062ZM25.3184 37.0952C27.1389 34.4182 28.478 31.4438 29.2754 28.3062H36.1953C35.0959 30.4489 33.5601 32.3379 31.6868 33.8516C29.8136 35.3653 27.6442 36.4702 25.3184 37.0952Z" fill="#D1D0CF"/>
</svg>
