<svg width="35" height="42" viewBox="0 0 35 42" fill="none" xmlns="http://www.w3.org/2000/svg">
<path d="M34.1445 8.81519L26.332 1.00269C26.1868 0.857632 26.0144 0.742611 25.8248 0.664192C25.6351 0.585773 25.4318 0.545493 25.2266 0.545655H9.60156C8.77276 0.545655 7.97791 0.874895 7.39185 1.46095C6.8058 2.047 6.47656 2.84185 6.47656 3.67065V6.79566H3.35156C2.52276 6.79566 1.7279 7.1249 1.14185 7.71095C0.555802 8.297 0.226563 9.09185 0.226562 9.92066V38.0457C0.226563 38.8745 0.555802 39.6693 1.14185 40.2554C1.7279 40.8414 2.52276 41.1707 3.35156 41.1707H25.2266C26.0554 41.1707 26.8502 40.8414 27.4363 40.2554C28.0223 39.6693 28.3516 38.8745 28.3516 38.0457V34.9207H31.4766C32.3054 34.9207 33.1002 34.5914 33.6863 34.0054C34.2723 33.4193 34.6016 32.6245 34.6016 31.7957V9.92066C34.6017 9.7154 34.5614 9.51213 34.483 9.32245C34.4046 9.13277 34.2896 8.9604 34.1445 8.81519ZM25.2266 38.0457H3.35156V9.92066H18.3301L25.2266 16.8171V33.3269C25.2266 33.3386 25.2266 33.3484 25.2266 33.3582C25.2266 33.3679 25.2266 33.3777 25.2266 33.3894V38.0457ZM31.4766 31.7957H28.3516V16.1707C28.3517 15.9654 28.3114 15.7621 28.233 15.5725C28.1546 15.3828 28.0396 15.2104 27.8945 15.0652L20.082 7.25269C19.9368 7.10763 19.7644 6.99261 19.5748 6.91419C19.3851 6.83577 19.1818 6.79549 18.9766 6.79566H9.60156V3.67065H24.5801L31.4766 10.5671V31.7957ZM20.5391 25.5457C20.5391 25.9601 20.3744 26.3575 20.0814 26.6505C19.7884 26.9435 19.391 27.1082 18.9766 27.1082H9.60156C9.18716 27.1082 8.78973 26.9435 8.49671 26.6505C8.20368 26.3575 8.03906 25.9601 8.03906 25.5457C8.03906 25.1313 8.20368 24.7338 8.49671 24.4408C8.78973 24.1478 9.18716 23.9832 9.60156 23.9832H18.9766C19.391 23.9832 19.7884 24.1478 20.0814 24.4408C20.3744 24.7338 20.5391 25.1313 20.5391 25.5457ZM20.5391 31.7957C20.5391 32.2101 20.3744 32.6075 20.0814 32.9005C19.7884 33.1935 19.391 33.3582 18.9766 33.3582H9.60156C9.18716 33.3582 8.78973 33.1935 8.49671 32.9005C8.20368 32.6075 8.03906 32.2101 8.03906 31.7957C8.03906 31.3813 8.20368 30.9838 8.49671 30.6908C8.78973 30.3978 9.18716 30.2332 9.60156 30.2332H18.9766C19.391 30.2332 19.7884 30.3978 20.0814 30.6908C20.3744 30.9838 20.5391 31.3813 20.5391 31.7957Z" fill="#D1D0CF"/>
</svg>
