<svg width="39" height="40" viewBox="0 0 39 40" fill="none" xmlns="http://www.w3.org/2000/svg">
<path d="M6.1875 30.3807C6.37318 30.4682 6.5743 30.5183 6.77935 30.5281C6.9844 30.5379 7.18937 30.5072 7.38254 30.4377C7.57572 30.3682 7.7533 30.2614 7.90516 30.1232C8.05702 29.9851 8.18017 29.8184 8.26758 29.6327L11.5215 22.7166H27.1855L30.4395 29.6327C30.5269 29.8184 30.6501 29.985 30.802 30.1231C30.9538 30.2612 31.1314 30.368 31.3246 30.4375C31.5177 30.5069 31.7227 30.5377 31.9277 30.5279C32.1327 30.5182 32.3338 30.4682 32.5195 30.3807C32.7052 30.2932 32.8719 30.1701 33.01 30.0182C33.1481 29.8663 33.2549 29.6887 33.3244 29.4956C33.3938 29.3024 33.4246 29.0975 33.4148 28.8925C33.4051 28.6874 33.355 28.4863 33.2676 28.3006L20.7676 1.73813C20.6414 1.46969 20.4414 1.24272 20.191 1.08374C19.9406 0.924757 19.6501 0.840332 19.3535 0.840332C19.0569 0.840332 18.7664 0.924757 18.516 1.08374C18.2656 1.24272 18.0656 1.46969 17.9395 1.73813L5.43945 28.3006C5.35192 28.4863 5.30183 28.6874 5.29205 28.8925C5.28227 29.0975 5.31299 29.3025 5.38246 29.4957C5.45193 29.6888 5.55878 29.8664 5.69692 30.0183C5.83505 30.1702 6.00175 30.2933 6.1875 30.3807ZM19.3535 6.07406L25.7148 19.5916H12.9922L19.3535 6.07406ZM38.1035 38.3416C38.1035 38.756 37.9389 39.1535 37.6459 39.4465C37.3528 39.7395 36.9554 39.9041 36.541 39.9041H2.16602C1.75161 39.9041 1.35419 39.7395 1.06116 39.4465C0.768136 39.1535 0.603516 38.756 0.603516 38.3416C0.603516 37.9272 0.768136 37.5298 1.06116 37.2368C1.35419 36.9438 1.75161 36.7791 2.16602 36.7791H36.541C36.9554 36.7791 37.3528 36.9438 37.6459 37.2368C37.9389 37.5298 38.1035 37.9272 38.1035 38.3416Z" fill="#D1D0CF"/>
</svg>
