<svg width="42" height="42" viewBox="0 0 42 42" fill="none" xmlns="http://www.w3.org/2000/svg">
<path d="M25.6691 17.6191C25.6691 18.0335 25.5045 18.4309 25.2115 18.724C24.9185 19.017 24.521 19.1816 24.1066 19.1816H19.4191V23.8691C19.4191 24.2835 19.2545 24.6809 18.9615 24.974C18.6685 25.267 18.271 25.4316 17.8566 25.4316C17.4422 25.4316 17.0448 25.267 16.7518 24.974C16.4588 24.6809 16.2941 24.2835 16.2941 23.8691V19.1816H11.6066C11.1922 19.1816 10.7948 19.017 10.5018 18.724C10.2088 18.4309 10.0441 18.0335 10.0441 17.6191C10.0441 17.2047 10.2088 16.8073 10.5018 16.5142C10.7948 16.2212 11.1922 16.0566 11.6066 16.0566H16.2941V11.3691C16.2941 10.9547 16.4588 10.5573 16.7518 10.2642C17.0448 9.97122 17.4422 9.8066 17.8566 9.8066C18.271 9.8066 18.6685 9.97122 18.9615 10.2642C19.2545 10.5573 19.4191 10.9547 19.4191 11.3691V16.0566H24.1066C24.521 16.0566 24.9185 16.2212 25.2115 16.5142C25.5045 16.8073 25.6691 17.2047 25.6691 17.6191ZM40.8371 40.5996C40.692 40.7448 40.5197 40.8601 40.33 40.9387C40.1403 41.0174 39.937 41.0578 39.7316 41.0578C39.5263 41.0578 39.323 41.0174 39.1333 40.9387C38.9436 40.8601 38.7713 40.7448 38.6262 40.5996L28.8488 30.8203C25.4459 33.6547 21.0812 35.0681 16.6628 34.7664C12.2443 34.4648 8.11222 32.4713 5.12612 29.2006C2.14002 25.93 0.529799 21.634 0.630424 17.2064C0.731049 12.7788 2.53477 8.56043 5.66638 5.42883C8.79798 2.29722 13.0164 0.4935 17.444 0.392875C21.8716 0.29225 26.1675 1.90247 29.4382 4.88857C32.7088 7.87468 34.7023 12.0068 35.004 16.4252C35.3056 20.8437 33.8923 25.2084 31.0578 28.6113L40.8371 38.3886C40.9824 38.5337 41.0976 38.7061 41.1763 38.8958C41.2549 39.0854 41.2954 39.2888 41.2954 39.4941C41.2954 39.6994 41.2549 39.9028 41.1763 40.0924C41.0976 40.2821 40.9824 40.4545 40.8371 40.5996ZM17.8566 31.6816C20.6379 31.6816 23.3568 30.8568 25.6694 29.3116C27.9819 27.7664 29.7843 25.5702 30.8487 23.0006C31.9131 20.431 32.1915 17.6035 31.6489 14.8756C31.1063 12.1478 29.767 9.64208 27.8003 7.67541C25.8337 5.70873 23.328 4.36941 20.6001 3.82681C17.8722 3.2842 15.0447 3.56268 12.4752 4.62704C9.90557 5.6914 7.70931 7.49382 6.16411 9.80639C4.6189 12.119 3.79415 14.8378 3.79415 17.6191C3.79828 21.3474 5.28119 24.9219 7.91753 27.5582C10.5539 30.1946 14.1283 31.6775 17.8566 31.6816Z" fill="#D1D0CF"/>
</svg>
