<svg width="46" height="36" viewBox="0 0 46 36" fill="none" xmlns="http://www.w3.org/2000/svg">
<path d="M40.9443 7.0625H37.8193V5.5C37.8193 4.2568 37.3255 3.06451 36.4464 2.18544C35.5673 1.30636 34.375 0.8125 33.1318 0.8125H5.00684C3.76363 0.8125 2.57135 1.30636 1.69227 2.18544C0.813196 3.06451 0.319336 4.2568 0.319336 5.5V24.25C0.319336 25.4932 0.813196 26.6855 1.69227 27.5646C2.57135 28.4436 3.76363 28.9375 5.00684 28.9375H26.8818V30.5C26.8818 31.7432 27.3757 32.9355 28.2548 33.8146C29.1338 34.6936 30.3261 35.1875 31.5693 35.1875H40.9443C42.1875 35.1875 43.3798 34.6936 44.2589 33.8146C45.138 32.9355 45.6318 31.7432 45.6318 30.5V11.75C45.6318 10.5068 45.138 9.31451 44.2589 8.43544C43.3798 7.55636 42.1875 7.0625 40.9443 7.0625ZM5.00684 25.8125C4.59244 25.8125 4.19501 25.6479 3.90198 25.3549C3.60896 25.0618 3.44434 24.6644 3.44434 24.25V5.5C3.44434 5.0856 3.60896 4.68817 3.90198 4.39515C4.19501 4.10212 4.59244 3.9375 5.00684 3.9375H33.1318C33.5462 3.9375 33.9437 4.10212 34.2367 4.39515C34.5297 4.68817 34.6943 5.0856 34.6943 5.5V7.0625H31.5693C30.3261 7.0625 29.1338 7.55636 28.2548 8.43544C27.3757 9.31451 26.8818 10.5068 26.8818 11.75V25.8125H5.00684ZM42.5068 30.5C42.5068 30.9144 42.3422 31.3118 42.0492 31.6049C41.7562 31.8979 41.3587 32.0625 40.9443 32.0625H31.5693C31.1549 32.0625 30.7575 31.8979 30.4645 31.6049C30.1715 31.3118 30.0068 30.9144 30.0068 30.5V11.75C30.0068 11.3356 30.1715 10.9382 30.4645 10.6451C30.7575 10.3521 31.1549 10.1875 31.5693 10.1875H40.9443C41.3587 10.1875 41.7562 10.3521 42.0492 10.6451C42.3422 10.9382 42.5068 11.3356 42.5068 11.75V30.5ZM23.7568 33.625C23.7568 34.0394 23.5922 34.4368 23.2992 34.7299C23.0062 35.0229 22.6087 35.1875 22.1943 35.1875H14.3818C13.9674 35.1875 13.57 35.0229 13.277 34.7299C12.984 34.4368 12.8193 34.0394 12.8193 33.625C12.8193 33.2106 12.984 32.8132 13.277 32.5201C13.57 32.2271 13.9674 32.0625 14.3818 32.0625H22.1943C22.6087 32.0625 23.0062 32.2271 23.2992 32.5201C23.5922 32.8132 23.7568 33.2106 23.7568 33.625ZM39.3818 14.875C39.3818 15.2894 39.2172 15.6868 38.9242 15.9799C38.6312 16.2729 38.2337 16.4375 37.8193 16.4375H34.6943C34.2799 16.4375 33.8825 16.2729 33.5895 15.9799C33.2965 15.6868 33.1318 15.2894 33.1318 14.875C33.1318 14.4606 33.2965 14.0632 33.5895 13.7701C33.8825 13.4771 34.2799 13.3125 34.6943 13.3125H37.8193C38.2337 13.3125 38.6312 13.4771 38.9242 13.7701C39.2172 14.0632 39.3818 14.4606 39.3818 14.875Z" fill="#D1D0CF"/>
</svg>
