<svg width="51" height="51" viewBox="0 0 51 51" fill="none" xmlns="http://www.w3.org/2000/svg">
<path d="M25.3235 16.0747C23.4693 16.0747 21.6567 16.6245 20.115 17.6546C18.5733 18.6848 17.3717 20.149 16.6621 21.862C15.9525 23.5751 15.7669 25.4601 16.1286 27.2786C16.4903 29.0972 17.3832 30.7677 18.6943 32.0788C20.0054 33.3899 21.6759 34.2828 23.4945 34.6445C25.3131 35.0063 27.1981 34.8206 28.9111 34.111C30.6242 33.4015 32.0883 32.1999 33.1185 30.6581C34.1486 29.1164 34.6985 27.3039 34.6985 25.4497C34.6959 22.9641 33.7073 20.581 31.9497 18.8234C30.1921 17.0658 27.8091 16.0773 25.3235 16.0747ZM25.3235 31.6997C24.0873 31.6997 22.8789 31.3331 21.8511 30.6464C20.8233 29.9596 20.0223 28.9835 19.5492 27.8414C19.0762 26.6994 18.9524 25.4427 19.1935 24.2304C19.4347 23.018 20.03 21.9043 20.904 21.0303C21.7781 20.1562 22.8918 19.5609 24.1041 19.3198C25.3165 19.0786 26.5732 19.2024 27.7152 19.6754C28.8573 20.1485 29.8334 20.9496 30.5201 21.9774C31.2069 23.0052 31.5735 24.2135 31.5735 25.4497C31.5735 27.1073 30.915 28.697 29.7429 29.8691C28.5708 31.0412 26.9811 31.6997 25.3235 31.6997ZM42.511 25.8715C42.5188 25.5903 42.5188 25.309 42.511 25.0278L45.425 21.3872C45.5778 21.196 45.6836 20.9717 45.7338 20.7322C45.784 20.4926 45.7772 20.2447 45.7141 20.0083C45.2364 18.2126 44.5218 16.4884 43.5891 14.8813C43.467 14.671 43.2974 14.4921 43.094 14.3588C42.8905 14.2256 42.6588 14.1417 42.4172 14.1137L37.7844 13.5981C37.5917 13.395 37.3964 13.1997 37.1985 13.0122L36.6516 8.36764C36.6234 8.12587 36.5392 7.89401 36.4056 7.69055C36.272 7.4871 36.0927 7.31766 35.882 7.19577C34.2743 6.2648 32.5503 5.55091 30.7551 5.07272C30.5185 5.00982 30.2705 5.00339 30.031 5.05394C29.7915 5.10449 29.5672 5.21061 29.3762 5.36374L25.7453 8.26217C25.4641 8.26217 25.1828 8.26217 24.9016 8.26217L21.261 5.35397C21.0698 5.20117 20.8454 5.09541 20.6059 5.0452C20.3664 4.995 20.1185 5.00174 19.882 5.06491C18.0866 5.54348 16.3626 6.25804 14.7551 7.18991C14.5448 7.31203 14.3659 7.48156 14.2326 7.685C14.0994 7.88845 14.0154 8.12019 13.9875 8.36178L13.4719 13.0024C13.2688 13.1964 13.0735 13.3917 12.886 13.5883L8.24142 14.1215C7.99965 14.1497 7.76779 14.2339 7.56433 14.3675C7.36087 14.5011 7.19144 14.6804 7.06955 14.8911C6.13858 16.4988 5.42469 18.2228 4.9465 20.018C4.8836 20.2546 4.87717 20.5026 4.92772 20.7422C4.97827 20.9817 5.08439 21.206 5.23752 21.3969L8.13595 25.0278C8.13595 25.309 8.13595 25.5903 8.13595 25.8715L5.22775 29.5122C5.07495 29.7033 4.96919 29.9277 4.91898 30.1672C4.86877 30.4067 4.87552 30.6547 4.93869 30.8911C5.4164 32.6868 6.13101 34.4109 7.06369 36.018C7.18581 36.2284 7.35534 36.4073 7.55878 36.5405C7.76223 36.6738 7.99397 36.7577 8.23556 36.7856L12.8684 37.3012C13.0624 37.5044 13.2577 37.6997 13.4543 37.8872L13.9953 42.5317C14.0235 42.7735 14.1077 43.0053 14.2413 43.2088C14.3749 43.4123 14.5542 43.5817 14.7649 43.7036C16.3726 44.6345 18.0966 45.3484 19.8918 45.8266C20.1284 45.8895 20.3764 45.896 20.6159 45.8454C20.8555 45.7949 21.0797 45.6887 21.2707 45.5356L24.9016 42.6372C25.1828 42.645 25.4641 42.645 25.7453 42.6372L29.386 45.5512C29.5771 45.704 29.8015 45.8098 30.041 45.86C30.2805 45.9102 30.5284 45.9035 30.7649 45.8403C32.5606 45.3626 34.2847 44.648 35.8918 43.7153C36.1021 43.5932 36.281 43.4236 36.4143 43.2202C36.5475 43.0168 36.6315 42.785 36.6594 42.5434L37.175 37.9106C37.3781 37.7179 37.5735 37.5226 37.761 37.3247L42.4055 36.7778C42.6473 36.7497 42.8791 36.6654 43.0826 36.5318C43.286 36.3982 43.4555 36.2189 43.5774 36.0083C44.5083 34.4005 45.2222 32.6765 45.7004 30.8813C45.7633 30.6447 45.7697 30.3967 45.7192 30.1572C45.6686 29.9177 45.5625 29.6934 45.4094 29.5024L42.511 25.8715ZM39.3664 24.602C39.3996 25.1666 39.3996 25.7327 39.3664 26.2973C39.3432 26.6839 39.4643 27.0653 39.7063 27.3676L42.4778 30.8305C42.1597 31.8412 41.7525 32.8216 41.261 33.7602L36.8469 34.2602C36.4625 34.3029 36.1076 34.4866 35.8508 34.7758C35.4748 35.1987 35.0744 35.5991 34.6516 35.9751C34.3623 36.2318 34.1786 36.5868 34.136 36.9712L33.6457 41.3813C32.7072 41.8731 31.7268 42.2803 30.716 42.5981L27.2512 39.8266C26.9739 39.6051 26.6295 39.4846 26.2746 39.4848H26.1809C25.6163 39.518 25.0502 39.518 24.4856 39.4848C24.099 39.4616 23.7176 39.5827 23.4153 39.8247L19.9426 42.5981C18.9319 42.2801 17.9515 41.8729 17.0129 41.3813L16.5129 36.9731C16.4702 36.5887 16.2865 36.2338 15.9973 35.977C15.5744 35.6011 15.174 35.2006 14.7981 34.7778C14.5413 34.4886 14.1864 34.3048 13.802 34.2622L9.39181 33.77C8.9 32.8315 8.49279 31.8511 8.17502 30.8403L10.9465 27.3755C11.1885 27.0731 11.3096 26.6917 11.2863 26.3051C11.2531 25.7405 11.2531 25.1744 11.2863 24.6098C11.3096 24.2233 11.1885 23.8418 10.9465 23.5395L8.17502 20.0688C8.49303 19.0581 8.90023 18.0777 9.39181 17.1391L13.8 16.6391C14.1844 16.5965 14.5393 16.4127 14.7961 16.1235C15.1721 15.7007 15.5725 15.3002 15.9953 14.9243C16.2857 14.6673 16.4702 14.3116 16.5129 13.9262L17.0031 9.51803C17.9416 9.02622 18.9221 8.61901 19.9328 8.30124L23.3977 11.0727C23.7 11.3147 24.0814 11.4358 24.468 11.4126C25.0326 11.3794 25.5987 11.3794 26.1633 11.4126C26.5499 11.4358 26.9313 11.3147 27.2336 11.0727L30.7043 8.30124C31.715 8.61925 32.6954 9.02645 33.634 9.51803L34.134 13.9262C34.1767 14.3106 34.3604 14.6656 34.6496 14.9223C35.0725 15.2983 35.4729 15.6987 35.8488 16.1215C36.1056 16.4108 36.4605 16.5945 36.8449 16.6372L41.2551 17.1274C41.7469 18.0659 42.1541 19.0463 42.4719 20.0571L39.7004 23.5219C39.4561 23.8268 39.3348 24.2122 39.3606 24.602H39.3664Z" fill="#D1D0CF"/>
</svg>
